# xmcd CD database file
#
# Track frame offsets:
#	150
#	8185
#	34362
#	69097
#	106512
#	124580
#	175357
#	223285
#	254637
#	273770
#	285082
#
# Disc length: 4376 seconds
#
# Revision: 0
# Processed by: cddbd v1.5.1PL0 Copyright (c) Steve Scherf et al.
# Submitted via: CDex 1.50
#
DISCID=9511160b
DTITLE=ハンターハンター - ハンター×ハンター×リフレッシュ
DYEAR=2002
DGENRE=Anime
TTITLE0=1. オープニング
TTITLE1=2. ファッションでリフレッシュ!
TTITLE2=3. マッサージでリフレッシュ!
TTITLE3=4. チェンジでリフレッシュ!
TTITLE4=5. リーディングでリフレッシュ!
TTITLE5=6. アートでリフレッシュ!
TTITLE6=7. クッキングでリフレッシュ!
TTITLE7=8. スポーツでリフレッシュ!
TTITLE8=9. バカンスでリフレッシュ!
TTITLE9=10. エンディング
TTITLE10=11. これがホントのリフレッシュ?
EXTD=YEAR: 2002
EXTT0=
EXTT1=
EXTT2=
EXTT3=
EXTT4=
EXTT5=
EXTT6=
EXTT7=
EXTT8=
EXTT9=
EXTT10=
PLAYORDER=
